<svg xmlns="http://www.w3.org/2000/svg" xmlns:xlink="http://www.w3.org/1999/xlink" width="100" zoomAndPan="magnify" viewBox="0 0 75 74.999997" height="100" preserveAspectRatio="xMidYMid meet" version="1.0"><defs><clipPath id="832c5d0b79"><path d="M 9 16.921875 L 11 16.921875 L 11 24 L 9 24 Z M 9 16.921875 " clip-rule="nonzero"/></clipPath><clipPath id="8ce398c726"><path d="M 62.417969 45.492188 L 74.945312 45.492188 L 74.945312 58.078125 L 62.417969 58.078125 Z M 62.417969 45.492188 " clip-rule="nonzero"/></clipPath></defs><rect x="-7.5" width="90" fill="#ffffff" y="-7.5" height="89.999996" fill-opacity="1"/><rect x="-7.5" width="90" fill="#ffffff" y="-7.5" height="89.999996" fill-opacity="1"/><path fill="#ffffff" d="M 64.089844 24.953125 L 14.15625 24.953125 C 10.8125 24.953125 8.09375 27.496094 8.09375 30.625 L 8.09375 47.621094 C 8.09375 50.746094 10.8125 53.289062 14.15625 53.289062 L 62.972656 53.289062 L 62.574219 51.800781 L 14.15625 51.800781 C 11.636719 51.800781 9.582031 49.925781 9.582031 47.621094 L 9.582031 30.625 C 9.582031 28.320312 11.636719 26.445312 14.15625 26.445312 L 64.089844 26.445312 C 66.613281 26.445312 68.664062 28.320312 68.664062 30.625 L 68.664062 45.707031 L 70.15625 46.105469 L 70.15625 30.625 C 70.15625 27.496094 67.433594 24.953125 64.089844 24.953125 " fill-opacity="1" fill-rule="nonzero"/><g clip-path="url(#832c5d0b79)"><path fill="#ffffff" d="M 9.972656 23.703125 C 9.570312 23.703125 9.238281 23.375 9.238281 22.96875 L 9.238281 17.652344 C 9.238281 17.25 9.570312 16.921875 9.972656 16.921875 L 9.996094 16.921875 C 10.398438 16.921875 10.726562 17.25 10.726562 17.652344 L 10.726562 22.96875 C 10.726562 23.375 10.398438 23.703125 9.996094 23.703125 L 9.972656 23.703125 " fill-opacity="1" fill-rule="nonzero"/></g><path fill="#ffffff" d="M 5.964844 23.578125 C 5.769531 23.578125 5.585938 23.5 5.445312 23.363281 L 1.6875 19.601562 C 1.546875 19.464844 1.472656 19.28125 1.472656 19.085938 C 1.472656 18.886719 1.546875 18.703125 1.6875 18.566406 L 1.703125 18.550781 C 1.839844 18.410156 2.023438 18.335938 2.222656 18.335938 C 2.417969 18.335938 2.601562 18.410156 2.738281 18.550781 L 6.5 22.308594 C 6.636719 22.449219 6.714844 22.632812 6.714844 22.828125 C 6.714844 23.023438 6.636719 23.207031 6.5 23.347656 L 6.480469 23.363281 C 6.34375 23.5 6.160156 23.578125 5.964844 23.578125 " fill-opacity="1" fill-rule="nonzero"/><path fill="#ffffff" d="M 0.789062 27.589844 C 0.386719 27.589844 0.0585938 27.261719 0.0585938 26.859375 L 0.0585938 26.835938 C 0.0585938 26.433594 0.386719 26.101562 0.789062 26.101562 L 6.105469 26.101562 C 6.511719 26.101562 6.839844 26.433594 6.839844 26.835938 L 6.839844 26.859375 C 6.839844 27.261719 6.511719 27.589844 6.105469 27.589844 L 0.789062 27.589844 " fill-opacity="1" fill-rule="nonzero"/><g clip-path="url(#8ce398c726)"><path fill="#ffffff" d="M 70.664062 50.914062 L 74.164062 48.726562 L 62.449219 45.585938 L 65.589844 57.300781 L 67.777344 53.796875 L 72.058594 58.078125 L 74.945312 55.195312 L 70.664062 50.914062 " fill-opacity="1" fill-rule="nonzero"/></g><path fill="#ffffff" d="M 16.84375 40 L 18.429688 40 C 18.148438 38.722656 17.792969 37.203125 17.648438 36.410156 C 17.488281 37.203125 17.132812 38.722656 16.84375 40 Z M 16.753906 34.988281 L 18.628906 34.988281 L 20.644531 42.347656 L 19 42.347656 L 18.664062 41.070312 L 16.605469 41.070312 L 16.273438 42.347656 L 14.707031 42.347656 L 16.753906 34.988281 " fill-opacity="1" fill-rule="nonzero"/><path fill="#ffffff" d="M 23.046875 38.390625 L 23.046875 41.25 C 23.238281 41.339844 23.472656 41.394531 23.707031 41.394531 C 24.457031 41.394531 24.824219 40.871094 24.824219 39.519531 C 24.824219 38.1875 24.523438 37.75 23.941406 37.75 C 23.550781 37.75 23.167969 38.175781 23.046875 38.390625 Z M 21.539062 36.601562 L 22.933594 36.601562 L 23 37.359375 L 23.023438 37.359375 C 23.226562 37.058594 23.773438 36.476562 24.554688 36.476562 C 25.5625 36.476562 26.378906 37.382812 26.378906 39.394531 C 26.378906 41.507812 25.417969 42.480469 24.175781 42.480469 C 23.773438 42.480469 23.382812 42.402344 23.035156 42.257812 L 23.035156 44.90625 L 21.539062 44.90625 L 21.539062 36.601562 " fill-opacity="1" fill-rule="nonzero"/><path fill="#ffffff" d="M 28.972656 38.390625 L 28.972656 41.25 C 29.160156 41.339844 29.398438 41.394531 29.632812 41.394531 C 30.378906 41.394531 30.75 40.871094 30.75 39.519531 C 30.75 38.1875 30.449219 37.75 29.867188 37.75 C 29.476562 37.75 29.09375 38.175781 28.972656 38.390625 Z M 27.460938 36.601562 L 28.859375 36.601562 L 28.925781 37.359375 L 28.949219 37.359375 C 29.152344 37.058594 29.699219 36.476562 30.480469 36.476562 C 31.488281 36.476562 32.304688 37.382812 32.304688 39.394531 C 32.304688 41.507812 31.34375 42.480469 30.101562 42.480469 C 29.699219 42.480469 29.308594 42.402344 28.960938 42.257812 L 28.960938 44.90625 L 27.460938 44.90625 L 27.460938 36.601562 " fill-opacity="1" fill-rule="nonzero"/><path fill="#ffffff" d="M 34.898438 42.347656 L 33.390625 42.347656 L 33.390625 34.308594 L 34.898438 34.085938 L 34.898438 42.347656 " fill-opacity="1" fill-rule="nonzero"/><path fill="#ffffff" d="M 40.710938 36.601562 L 38.820312 42.671875 C 38.351562 44.179688 37.46875 44.605469 37 44.863281 C 36.84375 44.660156 36.472656 44.144531 36.328125 43.945312 C 36.496094 43.800781 37.300781 43.386719 37.535156 42.46875 L 35.726562 36.601562 L 37.300781 36.601562 C 37.46875 37.28125 38.074219 39.796875 38.242188 40.738281 C 38.417969 39.773438 39.011719 37.28125 39.191406 36.601562 L 40.710938 36.601562 " fill-opacity="1" fill-rule="nonzero"/><path fill="#ffffff" d="M 49.34375 42.347656 L 47.957031 42.347656 L 45.609375 37.707031 L 45.597656 37.707031 C 45.597656 37.851562 45.628906 38.199219 45.628906 38.535156 L 45.628906 42.347656 L 44.265625 42.347656 L 44.265625 34.988281 L 45.664062 34.988281 C 46.445312 36.523438 47.21875 38.074219 47.988281 39.605469 L 48.011719 39.605469 C 48.011719 39.460938 47.976562 39.105469 47.976562 38.792969 L 47.976562 34.988281 L 49.34375 34.988281 L 49.34375 42.347656 " fill-opacity="1" fill-rule="nonzero"/><path fill="#ffffff" d="M 53.007812 37.582031 C 52.382812 37.582031 52.105469 38.132812 52.105469 39.472656 C 52.105469 40.816406 52.382812 41.375 53.007812 41.375 C 53.636719 41.375 53.914062 40.816406 53.914062 39.472656 C 53.914062 38.132812 53.636719 37.582031 53.007812 37.582031 Z M 53.007812 42.480469 C 51.511719 42.480469 50.550781 41.640625 50.550781 39.472656 C 50.550781 37.316406 51.511719 36.476562 53.007812 36.476562 C 54.496094 36.476562 55.480469 37.316406 55.480469 39.472656 C 55.480469 41.640625 54.496094 42.480469 53.007812 42.480469 " fill-opacity="1" fill-rule="nonzero"/><path fill="#ffffff" d="M 63.542969 36.601562 L 62.019531 42.347656 L 60.589844 42.347656 L 59.71875 38.613281 L 58.777344 42.347656 L 57.402344 42.347656 L 55.949219 36.601562 L 57.4375 36.601562 L 58.273438 40.492188 L 59.148438 36.601562 L 60.398438 36.601562 L 61.316406 40.492188 L 62.109375 36.601562 L 63.542969 36.601562 " fill-opacity="1" fill-rule="nonzero"/></svg>